<?xml version="1.0" encoding="UTF-8" standalone="no"?><!DOCTYPE svg PUBLIC "-//W3C//DTD SVG 1.1//EN" "http://www.w3.org/Graphics/SVG/1.1/DTD/svg11.dtd"><svg width="100%" height="100%" viewBox="0 0 48 48" version="1.1" xmlns="http://www.w3.org/2000/svg" xmlns:xlink="http://www.w3.org/1999/xlink" xml:space="preserve" xmlns:serif="http://www.serif.com/" style="fill-rule:evenodd;clip-rule:evenodd;stroke-linejoin:round;stroke-miterlimit:2;"><path d="M36.3,42l-26.3,0c-1.2,0 -2.167,-0.367 -2.9,-1.1c-0.733,-0.733 -1.1,-1.7 -1.1,-2.9l-0,-26.95c-0,-1.5 0.533,-2.458 1.6,-2.875c1.067,-0.417 2.133,-0.092 3.2,0.975l2.25,2.25l-2.1,2.1l1.35,1.35l2.1,-2.1l5.85,5.85l-2.1,2.1l1.35,1.35l2.1,-2.1l5.9,5.9l-2.1,2.1l1.35,1.35l2.1,-2.1l5.85,5.85l-2.1,2.1l1.35,1.35l2.1,-2.1l2.25,2.25c1.333,1.333 1.775,2.558 1.325,3.675c-0.45,1.117 -1.558,1.675 -3.325,1.675Zm-26.3,-27.15l-0,23.15l23.15,0l-23.15,-23.15Z" style="fill:#064dfa;fill-rule:nonzero;"/></svg>