<?xml version="1.0" encoding="UTF-8" standalone="no"?><!DOCTYPE svg PUBLIC "-//W3C//DTD SVG 1.1//EN" "http://www.w3.org/Graphics/SVG/1.1/DTD/svg11.dtd"><svg width="100%" height="100%" viewBox="0 0 24 24" version="1.1" xmlns="http://www.w3.org/2000/svg" xmlns:xlink="http://www.w3.org/1999/xlink" xml:space="preserve" xmlns:serif="http://www.serif.com/" style="fill-rule:evenodd;clip-rule:evenodd;stroke-linejoin:round;stroke-miterlimit:2;"><rect x="0" y="0" width="24" height="24" style="fill:none;"/><path d="M8,4l-6,6l0,10l12,0l0,-10l-6,-6Zm4,14l-3,0l0,-3l-2,0l0,3l-3,0l0,-7.17l4,-4l4,4l0,7.17Zm-3,-5l-2,0l0,-2l2,0l0,2Zm9,7l0,-11.65l-4.35,-4.35l-2.83,0l5.18,5.18l0,10.82l2,0Zm4,0l0,-13.31l-2.69,-2.69l-2.83,0l3.52,3.52l0,12.48l2,0Z" style="fill:#064dfa;fill-rule:nonzero;"/></svg>