<svg xmlns="http://www.w3.org/2000/svg" width="81.132" height="18" viewBox="0 0 81.132 18"><g transform="translate(-94.905 -94.831)"><path d="M2.52-7.764v6.432H7.68V0H.924V-7.764ZM20.628.156A6.513,6.513,0,0,1,17.982-.33,3.739,3.739,0,0,1,16.3-1.716a3.891,3.891,0,0,1-.582-2.16A3.914,3.914,0,0,1,16.3-6.048a3.739,3.739,0,0,1,1.68-1.386,6.513,6.513,0,0,1,2.646-.486,6.5,6.5,0,0,1,2.652.486,3.744,3.744,0,0,1,1.674,1.386,3.914,3.914,0,0,1,.582,2.172,3.891,3.891,0,0,1-.582,2.16A3.744,3.744,0,0,1,23.28-.33,6.5,6.5,0,0,1,20.628.156Zm0-1.38a4.552,4.552,0,0,0,1.686-.288,2.467,2.467,0,0,0,1.14-.876,2.524,2.524,0,0,0,.414-1.488,2.524,2.524,0,0,0-.414-1.488,2.5,2.5,0,0,0-1.14-.882,4.469,4.469,0,0,0-1.686-.294,4.575,4.575,0,0,0-1.692.294,2.532,2.532,0,0,0-1.164.882,2.5,2.5,0,0,0-.42,1.488,2.5,2.5,0,0,0,.42,1.488,2.5,2.5,0,0,0,1.164.876A4.66,4.66,0,0,0,20.628-1.224ZM59.1.156A6.513,6.513,0,0,1,56.454-.33a3.739,3.739,0,0,1-1.68-1.386,3.891,3.891,0,0,1-.582-2.16,3.914,3.914,0,0,1,.582-2.172,3.739,3.739,0,0,1,1.68-1.386A6.513,6.513,0,0,1,59.1-7.92a6.5,6.5,0,0,1,2.652.486,3.744,3.744,0,0,1,1.674,1.386,3.914,3.914,0,0,1,.582,2.172,3.891,3.891,0,0,1-.582,2.16A3.744,3.744,0,0,1,61.752-.33,6.5,6.5,0,0,1,59.1.156Zm0-1.38a4.552,4.552,0,0,0,1.686-.288,2.467,2.467,0,0,0,1.14-.876,2.524,2.524,0,0,0,.414-1.488,2.524,2.524,0,0,0-.414-1.488,2.5,2.5,0,0,0-1.14-.882A4.469,4.469,0,0,0,59.1-6.54a4.575,4.575,0,0,0-1.692.294,2.532,2.532,0,0,0-1.164.882,2.5,2.5,0,0,0-.42,1.488,2.5,2.5,0,0,0,.42,1.488,2.5,2.5,0,0,0,1.164.876A4.66,4.66,0,0,0,59.1-1.224ZM77.232.156A7,7,0,0,1,75.282-.1a4.274,4.274,0,0,1-1.5-.756A3.33,3.33,0,0,1,72.816-2.1a4.131,4.131,0,0,1-.336-1.716,4.1,4.1,0,0,1,.354-1.746,3.57,3.57,0,0,1,1.008-1.29,4.5,4.5,0,0,1,1.56-.8,7.022,7.022,0,0,1,2.01-.27,6.261,6.261,0,0,1,2.256.366,3.547,3.547,0,0,1,1.494,1.026,2.741,2.741,0,0,1,.618,1.572H80.244a2.066,2.066,0,0,0-.51-.834,2.388,2.388,0,0,0-.93-.552,4.306,4.306,0,0,0-1.392-.2A4.28,4.28,0,0,0,75.63-6.2a2.508,2.508,0,0,0-1.122.948,2.653,2.653,0,0,0-.384,1.44A2.726,2.726,0,0,0,74.46-2.43a2.169,2.169,0,0,0,1.038.894,4.441,4.441,0,0,0,1.794.312,4.529,4.529,0,0,0,1.482-.222,3.2,3.2,0,0,0,1.074-.6,2.151,2.151,0,0,0,.612-.846l.624-.228a3.484,3.484,0,0,1-1.17,2.412A3.994,3.994,0,0,1,77.232.156ZM80.676,0q0-.372.048-.858t.12-.984q.072-.5.132-.918H77.424V-3.78h4.632V0Z" transform="translate(93.981 107.831)" fill="#0c389f"/><g transform="translate(124.981 94.831)"><rect width="18" height="18" transform="translate(0 0)" fill="none"/><path d="M5.7,10.112a2.95,2.95,0,1,0,2.95,2.95A2.949,2.949,0,0,0,5.7,10.112Zm0,4.425a1.475,1.475,0,1,1,1.475-1.475A1.479,1.479,0,0,1,5.7,14.537Zm4.41-4.425v5.9h5.9v-5.9Zm4.425,4.425h-2.95v-2.95h2.95ZM5.687,2,2,8.637H9.375Zm0,3.038,1.18,2.124H4.507Zm9.034-2.67a2.015,2.015,0,0,0-1.659.863A2.028,2.028,0,0,0,9.375,4.4c0,1.475,1.785,2.522,3.687,4.24,1.9-1.718,3.687-2.765,3.687-4.24A2.031,2.031,0,0,0,14.721,2.369ZM13.062,6.683c-1.069-.9-2.212-1.77-2.212-2.286a.552.552,0,0,1,.553-.553.767.767,0,0,1,.538.273l1.121,1.055,1.121-1.055a.767.767,0,0,1,.538-.273.552.552,0,0,1,.553.553C15.274,4.913,14.131,5.783,13.062,6.683Z" transform="translate(-0.514 -0.424)" fill="#0c389f"/></g></g></svg>