<svg xmlns="http://www.w3.org/2000/svg" width="88.519" height="18" viewBox="0 0 88.519 18"><g transform="translate(-94 -268)"><g transform="translate(94 268)"><rect width="18" height="18" fill="none"/><path d="M6.472,4,2,8.472v7.453h8.943V8.472ZM9.453,14.434H7.217V12.2H5.726v2.236H3.491V9.09L6.472,6.109,9.453,9.09ZM7.217,10.707H5.726V9.217H7.217Zm6.707,5.217V7.242L10.682,4H8.573l3.86,3.86v8.064Zm2.981,0V6l-2-2H12.791l2.623,2.623v9.3Z" transform="translate(-0.509 -1.019)" fill="#0c389f"/></g><path d="M3.913.1a4.625,4.625,0,0,1-1.82-.332,2.684,2.684,0,0,1-1.2-.949A2.482,2.482,0,0,1,.468-2.613V-2.9a.15.15,0,0,1,.046-.11.15.15,0,0,1,.11-.046H2.106a.15.15,0,0,1,.111.046.15.15,0,0,1,.045.11v.2a1.062,1.062,0,0,0,.481.878,2.132,2.132,0,0,0,1.3.357A1.537,1.537,0,0,0,5.07-1.762a.917.917,0,0,0,.338-.722A.727.727,0,0,0,5.2-3.01a1.837,1.837,0,0,0-.566-.377Q4.277-3.549,3.5-3.835a11.139,11.139,0,0,1-1.476-.611A2.963,2.963,0,0,1,1.008-5.3,2.14,2.14,0,0,1,.6-6.63,2.347,2.347,0,0,1,1-7.995a2.566,2.566,0,0,1,1.118-.9A4.1,4.1,0,0,1,3.77-9.2a4.219,4.219,0,0,1,1.761.351,2.871,2.871,0,0,1,1.209.981,2.51,2.51,0,0,1,.436,1.463v.2a.15.15,0,0,1-.045.11.15.15,0,0,1-.11.045h-1.5a.15.15,0,0,1-.11-.045.15.15,0,0,1-.046-.11v-.1a1.181,1.181,0,0,0-.448-.93,1.829,1.829,0,0,0-1.229-.384,1.555,1.555,0,0,0-.956.26.847.847,0,0,0-.345.715.78.78,0,0,0,.2.546,1.769,1.769,0,0,0,.6.4q.4.176,1.229.475a15.3,15.3,0,0,1,1.45.6,2.888,2.888,0,0,1,.949.773,2.029,2.029,0,0,1,.422,1.333,2.328,2.328,0,0,1-.9,1.93A3.818,3.818,0,0,1,3.913.1ZM13.234,0a.15.15,0,0,1-.111-.046.15.15,0,0,1-.045-.111V-8.944a.15.15,0,0,1,.045-.11.15.15,0,0,1,.111-.045h1.521a.15.15,0,0,1,.11.045.15.15,0,0,1,.046.11V-.156a.15.15,0,0,1-.046.111.15.15,0,0,1-.11.046ZM21.2,0a.15.15,0,0,1-.111-.046.15.15,0,0,1-.045-.111V-8.944a.15.15,0,0,1,.045-.11A.15.15,0,0,1,21.2-9.1h1.521a.15.15,0,0,1,.111.045.15.15,0,0,1,.045.11v7.306a.057.057,0,0,0,.065.065H27.2a.15.15,0,0,1,.111.045.15.15,0,0,1,.045.111V-.156a.15.15,0,0,1-.045.111A.15.15,0,0,1,27.2,0ZM38.428-4.745q-.078.039,0,.078a2.2,2.2,0,0,1,1.235,2.119,2.231,2.231,0,0,1-.858,1.9A3.653,3.653,0,0,1,36.556,0H33.189a.15.15,0,0,1-.111-.046.15.15,0,0,1-.046-.111V-8.944a.15.15,0,0,1,.046-.11.15.15,0,0,1,.111-.045h3.263q3.081,0,3.081,2.5A1.926,1.926,0,0,1,38.428-4.745Zm-3.5-2.782a.057.057,0,0,0-.065.065v2.028a.057.057,0,0,0,.065.065h1.521a1.426,1.426,0,0,0,.949-.286.968.968,0,0,0,.338-.78,1,1,0,0,0-.338-.8,1.4,1.4,0,0,0-.949-.292Zm1.625,5.941a1.345,1.345,0,0,0,.936-.306,1.073,1.073,0,0,0,.338-.839,1.073,1.073,0,0,0-.338-.839,1.365,1.365,0,0,0-.949-.306H34.931a.057.057,0,0,0-.065.065v2.158a.057.057,0,0,0,.065.065Zm15.405-6.1a.15.15,0,0,1-.045.111.15.15,0,0,1-.111.045H47.541a.057.057,0,0,0-.065.065v2.015a.057.057,0,0,0,.065.065h2.8a.15.15,0,0,1,.111.046.15.15,0,0,1,.045.11v1.261a.15.15,0,0,1-.045.111.15.15,0,0,1-.111.045h-2.8a.057.057,0,0,0-.065.065v2.106a.057.057,0,0,0,.065.065h4.264a.15.15,0,0,1,.111.045.15.15,0,0,1,.045.111V-.156a.15.15,0,0,1-.045.111A.15.15,0,0,1,51.805,0H45.8a.15.15,0,0,1-.111-.046.15.15,0,0,1-.046-.111V-8.944a.15.15,0,0,1,.046-.11A.15.15,0,0,1,45.8-9.1h6.006a.15.15,0,0,1,.111.045.15.15,0,0,1,.045.11ZM62.777,0A.184.184,0,0,1,62.6-.117l-1.625-3.6a.083.083,0,0,0-.078-.052H59.683a.057.057,0,0,0-.065.065V-.156a.15.15,0,0,1-.045.111A.15.15,0,0,1,59.462,0H57.941a.15.15,0,0,1-.111-.046.15.15,0,0,1-.046-.111V-8.944a.15.15,0,0,1,.046-.11.15.15,0,0,1,.111-.045h3.718a3.049,3.049,0,0,1,1.463.338A2.37,2.37,0,0,1,64.1-7.8a2.937,2.937,0,0,1,.344,1.443A2.571,2.571,0,0,1,64-4.843a2.354,2.354,0,0,1-1.235.891.062.062,0,0,0-.039.091L64.493-.182a.2.2,0,0,1,.026.078q0,.1-.143.1ZM59.683-7.527a.057.057,0,0,0-.065.065v2.223a.057.057,0,0,0,.065.065h1.7a1.245,1.245,0,0,0,.89-.325,1.109,1.109,0,0,0,.345-.845,1.13,1.13,0,0,0-.345-.852,1.231,1.231,0,0,0-.89-.332Z" transform="translate(118 282)" fill="#0c389f"/></g></svg>