<?xml version="1.0" encoding="UTF-8" standalone="no"?><!DOCTYPE svg PUBLIC "-//W3C//DTD SVG 1.1//EN" "http://www.w3.org/Graphics/SVG/1.1/DTD/svg11.dtd"><svg width="100%" height="100%" viewBox="0 0 48 48" version="1.1" xmlns="http://www.w3.org/2000/svg" xmlns:xlink="http://www.w3.org/1999/xlink" xml:space="preserve" xmlns:serif="http://www.serif.com/" style="fill-rule:evenodd;clip-rule:evenodd;stroke-linejoin:round;stroke-miterlimit:2;"><path d="M14,36c-3.333,0 -6.167,-1.167 -8.5,-3.5c-2.333,-2.333 -3.5,-5.167 -3.5,-8.5c0,-3.333 1.167,-6.167 3.5,-8.5c2.333,-2.333 5.167,-3.5 8.5,-3.5c2.6,0 4.792,0.625 6.575,1.875c1.783,1.25 3.108,2.908 3.975,4.975l21.45,0l0,10.3l-5.3,-0l0,6.85l-9.3,0l-0,-6.85l-6.85,0c-0.867,2.067 -2.192,3.725 -3.975,4.975c-1.783,1.25 -3.975,1.875 -6.575,1.875Zm0,-3c2.367,0 4.308,-0.783 5.825,-2.35c1.517,-1.567 2.408,-3.067 2.675,-4.5l12.1,0l0,6.85l3.1,0l0,-6.85l5.3,0l0,-4.3l-20.5,0c-0.267,-1.433 -1.158,-2.933 -2.675,-4.5c-1.517,-1.567 -3.458,-2.35 -5.825,-2.35c-2.5,0 -4.625,0.875 -6.375,2.625c-1.75,1.75 -2.625,3.875 -2.625,6.375c0,2.5 0.875,4.625 2.625,6.375c1.75,1.75 3.875,2.625 6.375,2.625Zm0,-5.6c0.967,0 1.775,-0.325 2.425,-0.975c0.65,-0.65 0.975,-1.458 0.975,-2.425c-0,-0.967 -0.325,-1.775 -0.975,-2.425c-0.65,-0.65 -1.458,-0.975 -2.425,-0.975c-0.967,0 -1.775,0.325 -2.425,0.975c-0.65,0.65 -0.975,1.458 -0.975,2.425c0,0.967 0.325,1.775 0.975,2.425c0.65,0.65 1.458,0.975 2.425,0.975Zm0,-3.4l0,0Z" style="fill:#fff;fill-rule:nonzero;"/></svg>