<svg xmlns="http://www.w3.org/2000/svg" width="71.312" height="11.467" viewBox="0 0 71.312 11.467"><g transform="translate(0 0)"><path d="M2257.416,1328.173v-11.008h4.648q.16,0,.432.011a3.664,3.664,0,0,1,.486.05,3.407,3.407,0,0,1,1.617.65,2.941,2.941,0,0,1,.929,1.25,4.524,4.524,0,0,1,.3,1.678,4.471,4.471,0,0,1-.3,1.678,2.969,2.969,0,0,1-.933,1.25,3.4,3.4,0,0,1-1.609.65q-.214.03-.489.046t-.428.015H2259.5v3.731Zm2.079-5.672h2.477q.16,0,.352-.016a1.8,1.8,0,0,0,.352-.061,1.253,1.253,0,0,0,.65-.386,1.535,1.535,0,0,0,.317-.6,2.307,2.307,0,0,0,0-1.261,1.533,1.533,0,0,0-.317-.6,1.253,1.253,0,0,0-.65-.386,1.807,1.807,0,0,0-.352-.061q-.191-.016-.352-.015H2259.5Z" transform="translate(-2257.416 -1316.935)" fill="#0c389f"/><path d="M2285.769,1328.173l3.471-11.008h2.7l3.471,11.008h-1.9l-3.15-9.877h.413l-3.111,9.877Zm1.934-2.385v-1.72h5.78v1.72Z" transform="translate(-2273.384 -1316.935)" fill="#0c389f"/><path d="M2317.99,1328.173v-11.008h4.449q.16,0,.4.011a3.552,3.552,0,0,1,.451.05,3.268,3.268,0,0,1,1.532.627,2.96,2.96,0,0,1,.921,1.216,4.463,4.463,0,0,1,0,3.249,2.961,2.961,0,0,1-.921,1.216,3.267,3.267,0,0,1-1.532.627q-.214.031-.455.046t-.394.015h-2.852v3.952Zm1.6-5.466h2.79q.153,0,.34-.016a2.521,2.521,0,0,0,.355-.053,1.557,1.557,0,0,0,.788-.424,1.822,1.822,0,0,0,.428-.715,2.646,2.646,0,0,0,.13-.81,2.611,2.611,0,0,0-.13-.807,1.828,1.828,0,0,0-.428-.711,1.557,1.557,0,0,0-.788-.424,1.943,1.943,0,0,0-.355-.061q-.187-.015-.34-.015h-2.79Z" transform="translate(-2291.531 -1316.935)" fill="#0c389f"/><path d="M2346.938,1328.173v-11.008h6.957v1.292h-5.6v3.448h4.679v1.292H2348.3v3.685h5.6v1.292Z" transform="translate(-2307.835 -1316.935)" fill="#0c389f"/><path d="M2374.067,1328.173v-11.008h4.25c.107,0,.228,0,.363.011a3.26,3.26,0,0,1,.409.05,3.065,3.065,0,0,1,1.464.6,3,3,0,0,1,.91,1.181,3.906,3.906,0,0,1,.309,1.575,3.617,3.617,0,0,1-.657,2.163,2.889,2.889,0,0,1-1.881,1.155l-.39.092h-3.655v4.182Zm6.666,0-2.171-4.48,1.078-.413,2.385,4.893Zm-5.543-5.252h3.1q.138,0,.322-.015a2.765,2.765,0,0,0,.359-.054,1.9,1.9,0,0,0,.928-.466,2.177,2.177,0,0,0,.543-.818,2.763,2.763,0,0,0,.18-.986,2.793,2.793,0,0,0-.18-.99,2.169,2.169,0,0,0-.543-.822,1.9,1.9,0,0,0-.928-.466,2.382,2.382,0,0,0-.359-.049q-.184-.012-.322-.012h-3.1Z" transform="translate(-2323.114 -1316.935)" fill="#0c389f"/><path d="M2406.117,1328.107a5.288,5.288,0,0,1-2.038-.375,3.91,3.91,0,0,1-1.5-1.063,3.592,3.592,0,0,1-.792-1.636l.9-.153a2.911,2.911,0,0,0,1.212,1.735,3.868,3.868,0,0,0,2.236.635,4.049,4.049,0,0,0,1.567-.283,2.456,2.456,0,0,0,1.063-.8,1.964,1.964,0,0,0,.382-1.2,1.749,1.749,0,0,0-.18-.833,1.691,1.691,0,0,0-.462-.554,2.657,2.657,0,0,0-.6-.352,6.06,6.06,0,0,0-.6-.218l-2.767-.826a4.725,4.725,0,0,1-.982-.4,2.912,2.912,0,0,1-.726-.558,2.237,2.237,0,0,1-.451-.722,2.482,2.482,0,0,1-.157-.9,2.608,2.608,0,0,1,.474-1.552,3.129,3.129,0,0,1,1.3-1.036,4.631,4.631,0,0,1,1.907-.371,4.731,4.731,0,0,1,1.95.4,3.628,3.628,0,0,1,2.133,2.817l-.91.16a2.74,2.74,0,0,0-.546-1.323,2.965,2.965,0,0,0-1.121-.879,3.569,3.569,0,0,0-1.513-.313,3.365,3.365,0,0,0-1.418.268,2.414,2.414,0,0,0-.967.742,1.707,1.707,0,0,0-.352,1.055,1.385,1.385,0,0,0,.333.975,2.326,2.326,0,0,0,.818.57,8.47,8.47,0,0,0,.929.336l2.217.657q.313.092.749.26a3.7,3.7,0,0,1,.856.478,2.477,2.477,0,0,1,.7.818,2.621,2.621,0,0,1,.279,1.273,3.034,3.034,0,0,1-.283,1.33,2.761,2.761,0,0,1-.81,1,3.819,3.819,0,0,1-1.246.627A5.437,5.437,0,0,1,2406.117,1328.107Z" transform="translate(-2338.728 -1316.64)" fill="#0c389f"/></g></svg>