<svg xmlns="http://www.w3.org/2000/svg" width="87" height="18.027" viewBox="0 0 87 18.027"><g transform="translate(-0.953 -0.906)"><rect width="7.394" height="1.833" transform="translate(20.191 17.1)" fill="#0c389f"/><rect width="7.394" height="1.833" transform="translate(20.191 0.906)" fill="#0c389f"/><path d="M9.549,19.805H11.41V9.941H9.28L6.189,14.183,3.1,9.941H.953v9.864H2.814V12.632l3.148,4.3H6.33l3.219-4.284v7.159Z" transform="translate(0 -4.935)" fill="#0c389f"/><path d="M50.741,17.938H45.194V15.707h5.349V13.972H45.194V11.684h5.547v-1.8H43.347v9.893h7.394Z" transform="translate(-23.156 -4.901)" fill="#0c389f"/><path d="M81.5,19.772h1.861v-8.2H86.5V9.879H78.37v1.692H81.5v8.2Z" transform="translate(-42.286 -4.901)" fill="#0c389f"/><path d="M123.106,19.645l-2.99-3.373a2.932,2.932,0,0,0,2.5-3.112,3.274,3.274,0,0,0-3.556-3.28c-1.567.014-3.134,0-4.7,0v9.893h1.861v-3.3h1.793l2.881,3.3h2.214Zm-4.05-8.031a1.592,1.592,0,1,1,0,3.177h-2.838V11.613h2.838Z" transform="translate(-61.942 -4.901)" fill="#0c389f"/><rect width="1.847" height="9.893" transform="translate(68.999 4.978)" fill="#0c389f"/><path d="M182.317,9.879H180l-3.754,4.183V9.879h-1.861v9.893h1.861V15.39l4.135,4.381h2.3v-.113l-4.757-4.989,4.389-4.734V9.879Z" transform="translate(-94.732 -4.901)" fill="#0c389f"/></g></svg>