<svg xmlns="http://www.w3.org/2000/svg" width="90.125" height="17.103" viewBox="0 0 90.125 17.103"><g transform="translate(-99 -201)"><path d="M1.05,0V-10.8H5.61q.158,0,.424.011a3.592,3.592,0,0,1,.476.049A3.342,3.342,0,0,1,8.1-10.1a2.886,2.886,0,0,1,.911,1.226A4.437,4.437,0,0,1,9.3-7.23,4.387,4.387,0,0,1,9-5.584a2.915,2.915,0,0,1-.915,1.226A3.334,3.334,0,0,1,6.51-3.72q-.21.03-.48.045t-.42.015H3.09V0ZM3.09-5.565H5.52q.158,0,.345-.015a1.769,1.769,0,0,0,.345-.06,1.231,1.231,0,0,0,.637-.379,1.5,1.5,0,0,0,.311-.592,2.423,2.423,0,0,0,.086-.619,2.423,2.423,0,0,0-.086-.619,1.5,1.5,0,0,0-.311-.593A1.231,1.231,0,0,0,6.21-8.82a1.769,1.769,0,0,0-.345-.06q-.187-.015-.345-.015H3.09ZM14.55,0l3.3-10.8H20.9L24.195,0H22.1l-2.94-9.525h.39L16.65,0Zm1.98-2.25V-4.155h5.7V-2.25ZM35.13.225A5.325,5.325,0,0,1,32.336-.48a4.7,4.7,0,0,1-1.808-1.972A6.51,6.51,0,0,1,29.9-5.4a6.51,6.51,0,0,1,.634-2.947,4.7,4.7,0,0,1,1.808-1.973,5.325,5.325,0,0,1,2.794-.7,5.155,5.155,0,0,1,3.124.923,4.892,4.892,0,0,1,1.781,2.5l-2.055.57a2.93,2.93,0,0,0-1.013-1.526A2.945,2.945,0,0,0,35.13-9.1a3.024,3.024,0,0,0-1.714.457,2.785,2.785,0,0,0-1.031,1.29A5.091,5.091,0,0,0,32.04-5.4a5.091,5.091,0,0,0,.345,1.958,2.785,2.785,0,0,0,1.031,1.29,3.024,3.024,0,0,0,1.714.457,2.931,2.931,0,0,0,1.837-.548A2.95,2.95,0,0,0,37.98-3.765l2.055.57A4.892,4.892,0,0,1,38.254-.7,5.155,5.155,0,0,1,35.13.225ZM46.935,0V-10.8h2.04v4.98l4.11-4.98h2.49L51.06-5.475,55.86,0H53.28L48.975-4.92V0ZM65.79.225A5.321,5.321,0,0,1,63.626-.2a4.03,4.03,0,0,1-1.583-1.215A3.959,3.959,0,0,1,61.26-3.3l2.13-.315a2.373,2.373,0,0,0,.93,1.432,2.7,2.7,0,0,0,1.605.5,3.063,3.063,0,0,0,.975-.158,1.925,1.925,0,0,0,.776-.465,1.036,1.036,0,0,0,.3-.757,1.048,1.048,0,0,0-.049-.319.852.852,0,0,0-.161-.289,1.187,1.187,0,0,0-.319-.255,2.537,2.537,0,0,0-.521-.217l-2.805-.825q-.315-.09-.731-.255a3.22,3.22,0,0,1-.806-.473,2.416,2.416,0,0,1-.649-.814,2.8,2.8,0,0,1-.259-1.279,2.9,2.9,0,0,1,.548-1.808,3.264,3.264,0,0,1,1.462-1.072,5.486,5.486,0,0,1,2.025-.345,5.311,5.311,0,0,1,2,.382,3.829,3.829,0,0,1,1.47,1.069,4.273,4.273,0,0,1,.855,1.714L67.83-7.47a1.951,1.951,0,0,0-.443-.885,2.124,2.124,0,0,0-.769-.548,2.6,2.6,0,0,0-.934-.2,2.507,2.507,0,0,0-.9.131,1.709,1.709,0,0,0-.69.424.921.921,0,0,0-.266.66.784.784,0,0,0,.218.574,1.611,1.611,0,0,0,.547.356,5.342,5.342,0,0,0,.675.225l1.875.51q.42.112.93.3a4.205,4.205,0,0,1,.979.51,2.592,2.592,0,0,1,.772.859,2.7,2.7,0,0,1,.3,1.35,3.055,3.055,0,0,1-.364,1.519,3.168,3.168,0,0,1-.979,1.072,4.5,4.5,0,0,1-1.391.634A6.1,6.1,0,0,1,65.79.225Z" transform="translate(119 215)" fill="#0c389f"/><g transform="translate(99 201)"><path d="M0,0H17.1V17.1H0Z" fill="none"/><path d="M9.406,13.786,4.154,9.7,3,10.6l6.413,4.988L15.827,10.6,14.665,9.7Zm.007-1.81,5.245-4.083,1.169-.905L9.413,2,3,6.988l1.162.905Zm0-8.174L13.5,6.988l-4.09,3.185L5.323,6.988,9.413,3.8Z" transform="translate(-0.862 -0.575)" fill="#0c389f"/></g></g></svg>