<svg xmlns="http://www.w3.org/2000/svg" width="88.758" height="21" viewBox="0 0 88.758 21"><g transform="translate(-52 -117)"><g transform="translate(52 116.733)"><rect width="21" height="21" transform="translate(0 0.267)" fill="none"/><path d="M17.305,12.4a6.43,6.43,0,0,1-3.813,3.8l-1.092.425V17.6H8.933v-.971l-1.1-.433a6.43,6.43,0,0,1-3.813-3.8H17.305M10.667,2A8.67,8.67,0,0,0,2,10.667a7.827,7.827,0,0,0,5.2,7.15v1.517h6.933V17.817a7.827,7.827,0,0,0,5.2-7.15h0A8.67,8.67,0,0,0,10.667,2ZM8.933,10.667V3.959a6.779,6.779,0,0,1,3.467,0v6.708Zm5.2,0v-6a6.927,6.927,0,0,1,3.467,6Zm-10.4,0a6.938,6.938,0,0,1,3.467-6v6Z" transform="translate(-0.267 -0.267)" fill="#0c389f"/></g><path d="M-26.41,0V-10.081h-3.859V-12.24h10.03v2.159H-24.1V0Zm11.441,0,3.74-12.24h3.451L-4.037,0h-2.38L-9.749-10.8h.442L-12.588,0Zm2.244-2.55V-4.709h6.46V-2.55ZM7.506.255a6.035,6.035,0,0,1-3.166-.8A5.322,5.322,0,0,1,2.291-2.78,7.378,7.378,0,0,1,1.572-6.12a7.378,7.378,0,0,1,.718-3.341A5.322,5.322,0,0,1,4.339-11.7a6.035,6.035,0,0,1,3.166-.8,6.035,6.035,0,0,1,3.166.8A5.322,5.322,0,0,1,12.72-9.461a7.378,7.378,0,0,1,.718,3.341A7.378,7.378,0,0,1,12.72-2.78,5.322,5.322,0,0,1,10.672-.544,6.035,6.035,0,0,1,7.506.255Zm0-2.176a3.316,3.316,0,0,0,1.938-.5A3.136,3.136,0,0,0,10.6-3.893,5.892,5.892,0,0,0,10.99-6.12,5.761,5.761,0,0,0,10.6-8.33a3.145,3.145,0,0,0-1.16-1.454,3.5,3.5,0,0,0-1.938-.535,3.316,3.316,0,0,0-1.938.5,3.136,3.136,0,0,0-1.16,1.47A5.892,5.892,0,0,0,4.021-6.12a5.761,5.761,0,0,0,.387,2.21,3.145,3.145,0,0,0,1.16,1.454A3.5,3.5,0,0,0,7.506-1.921ZM20.239,0V-12.24h5.168q.178,0,.48.013a4.071,4.071,0,0,1,.54.055,3.787,3.787,0,0,1,1.8.722,3.271,3.271,0,0,1,1.033,1.39,5.029,5.029,0,0,1,.332,1.866,4.469,4.469,0,0,1-.765,2.631,3.406,3.406,0,0,1-2.4,1.347l-1.02.068H22.551V0Zm6.9,0L24.726-4.981l2.38-.459L29.758,0Zm-4.59-6.307H25.3q.178,0,.391-.017a2.005,2.005,0,0,0,.391-.068,1.4,1.4,0,0,0,.722-.429,1.705,1.705,0,0,0,.353-.672,2.746,2.746,0,0,0,.1-.7,2.746,2.746,0,0,0-.1-.7,1.705,1.705,0,0,0-.353-.672A1.4,1.4,0,0,0,26.087-10a2.005,2.005,0,0,0-.391-.068q-.212-.017-.391-.017H22.551Z" transform="translate(111 133)" fill="#0c389f"/></g></svg>