<svg xmlns="http://www.w3.org/2000/svg" width="95.095" height="27" viewBox="0 0 95.095 27"><g transform="translate(-49.389 -50)"><path d="M.779-13.3H3.857a3.044,3.044,0,0,1,2.337.836,3.472,3.472,0,0,1,.779,2.451V-8.7a3.472,3.472,0,0,1-.779,2.451,3.044,3.044,0,0,1-2.337.836H2.869V0H.779ZM3.857-7.315a.983.983,0,0,0,.77-.285,1.445,1.445,0,0,0,.256-.969v-1.577a1.445,1.445,0,0,0-.256-.969.983.983,0,0,0-.77-.285H2.869v4.085ZM14.763-13.3h2.09V-1.9h3.439V0H14.763ZM30.894.19a3.068,3.068,0,0,1-2.356-.874,3.48,3.48,0,0,1-.817-2.47v-6.992a3.48,3.48,0,0,1,.817-2.47,3.068,3.068,0,0,1,2.356-.874,3.068,3.068,0,0,1,2.356.874,3.48,3.48,0,0,1,.817,2.47v6.992a3.48,3.48,0,0,1-.817,2.47A3.068,3.068,0,0,1,30.894.19Zm0-1.9q1.083,0,1.083-1.311v-7.258q0-1.311-1.083-1.311t-1.083,1.311v7.258Q29.811-1.71,30.894-1.71ZM43.681-11.4H41.5v-1.9h6.46v1.9H45.771V0h-2.09ZM58.33.19a2.937,2.937,0,0,1-2.3-.865,3.582,3.582,0,0,1-.779-2.479v-.76h1.976V-3q0,1.292,1.083,1.292a1.018,1.018,0,0,0,.807-.313,1.524,1.524,0,0,0,.276-1.016,2.817,2.817,0,0,0-.38-1.472,7.023,7.023,0,0,0-1.406-1.53A8.417,8.417,0,0,1,55.8-8.1a4.2,4.2,0,0,1-.513-2.081,3.467,3.467,0,0,1,.8-2.441,3,3,0,0,1,2.318-.865,2.881,2.881,0,0,1,2.271.865,3.611,3.611,0,0,1,.77,2.479V-9.6H59.47v-.684a1.528,1.528,0,0,0-.266-1,.965.965,0,0,0-.779-.313q-1.045,0-1.045,1.273a2.511,2.511,0,0,0,.389,1.349,7.445,7.445,0,0,0,1.415,1.52A7.821,7.821,0,0,1,60.99-5.377a4.6,4.6,0,0,1,.494,2.185,3.565,3.565,0,0,1-.808,2.508A3.037,3.037,0,0,1,58.33.19Z" transform="translate(83 70)" fill="#0c389f"/><g transform="translate(49.389 50)"><path d="M0,0H27V27H0Z" fill="none"/><path d="M5.74,12.219a.926.926,0,1,0,.926.926A.928.928,0,0,0,5.74,12.219Zm0,3.7a.926.926,0,1,0,.926.926A.928.928,0,0,0,5.74,15.922Zm0-7.405a.926.926,0,1,0,.926.926A.928.928,0,0,0,5.74,8.517Zm-2.777.463a.463.463,0,1,0,.463.463A.458.458,0,0,0,2.963,8.979ZM5.74,4.814a.926.926,0,1,0,.926.926A.928.928,0,0,0,5.74,4.814ZM19.624,9.905a.463.463,0,1,0-.463-.463A.458.458,0,0,0,19.624,9.905Zm-6.479-3.24a.926.926,0,1,0-.926-.926A.928.928,0,0,0,13.145,6.665Zm0-3.24a.463.463,0,1,0-.463-.463A.458.458,0,0,0,13.145,3.426ZM2.963,12.682a.463.463,0,1,0,.463.463A.458.458,0,0,0,2.963,12.682Zm6.479,6.479a.463.463,0,1,0,.463.463A.458.458,0,0,0,9.442,19.161Zm0-15.736a.463.463,0,1,0-.463-.463A.458.458,0,0,0,9.442,3.426Zm0,3.24a.926.926,0,1,0-.926-.926A.928.928,0,0,0,9.442,6.665Zm0,5.091a1.388,1.388,0,1,0,1.388,1.388A1.387,1.387,0,0,0,9.442,11.756Zm7.405.463a.926.926,0,1,0,.926.926A.928.928,0,0,0,16.847,12.219Zm0,3.7a.926.926,0,1,0,.926.926A.928.928,0,0,0,16.847,15.922Zm0-7.405a.926.926,0,1,0,.926.926A.928.928,0,0,0,16.847,8.517Zm0-3.7a.926.926,0,1,0,.926.926A.928.928,0,0,0,16.847,4.814Zm2.777,7.868a.463.463,0,1,0,.463.463A.458.458,0,0,0,19.624,12.682Zm-6.479,3.24a.926.926,0,1,0,.926.926A.928.928,0,0,0,13.145,15.922Zm0,3.24a.463.463,0,1,0,.463.463A.458.458,0,0,0,13.145,19.161ZM9.442,8.054a1.388,1.388,0,1,0,1.388,1.388A1.387,1.387,0,0,0,9.442,8.054Zm0,7.868a.926.926,0,1,0,.926.926A.928.928,0,0,0,9.442,15.922Zm3.7-4.165a1.388,1.388,0,1,0,1.388,1.388A1.387,1.387,0,0,0,13.145,11.756Zm0-3.7a1.388,1.388,0,1,0,1.388,1.388A1.387,1.387,0,0,0,13.145,8.054Z" transform="translate(2.207 2.207)" fill="#0c389f"/></g></g></svg>